# xmcd
#
# Track frame offsets:
#	150
#	9257
#	34811
#	58041
#	78931
#	103902
#	124975
#	146908
#	164634
#	181613
#	204457
#	228123
#	255600
#	278679
#
# Disc length: 4137 seconds
#
# Revision: 1
# Processed by: cddbd v1.5.2PL0 Copyright (c) Steve Scherf et al.
# Submitted via: EZCDAudioConverter 1.3.4.1
#
DISCID=bc10270e
DTITLE=陳潔儀 - That's KIT Concert  就是陳潔儀  [CD2]
DYEAR=2002
DGENRE=Pop
TTITLE0=下雪了
TTITLE1=等了又等 
TTITLE2=I'd Give My Life For You
TTITLE3=Don't Tell Mama
TTITLE4=終於忘記了你的生日
TTITLE5=Mr Turner
TTITLE6=愛得正好
TTITLE7=早去早回
TTITLE8=我怕
TTITLE9=蘿拉
TTITLE10=你酷
TTITLE11=炫耀
TTITLE12=心痛
TTITLE13=家
EXTD=
EXTT0=
EXTT1=
EXTT2=
EXTT3=
EXTT4=
EXTT5=
EXTT6=
EXTT7=
EXTT8=
EXTT9=
EXTT10=
EXTT11=
EXTT12=
EXTT13=
PLAYORDER=
